<svg xmlns="http://www.w3.org/2000/svg" xmlns:xlink="http://www.w3.org/1999/xlink" width="500" zoomAndPan="magnify" viewBox="0 0 375 374.999991" height="500" preserveAspectRatio="xMidYMid meet" version="1.2"><defs><clipPath id="ae800a38a1"><path d="M 114.578125 201 L 188 201 L 188 305.925781 L 114.578125 305.925781 Z M 114.578125 201 "/></clipPath><clipPath id="acb7cdebe4"><path d="M 187 201 L 260.078125 201 L 260.078125 305.925781 L 187 305.925781 Z M 187 201 "/></clipPath><clipPath id="f7c2aff650"><path d="M 148.484375 142.738281 L 165.941406 142.738281 L 165.941406 160.195312 L 148.484375 160.195312 Z M 148.484375 142.738281 "/></clipPath><clipPath id="2b384ef106"><path d="M 157.210938 142.738281 C 152.390625 142.738281 148.484375 146.648438 148.484375 151.46875 C 148.484375 156.289062 152.390625 160.195312 157.210938 160.195312 C 162.03125 160.195312 165.941406 156.289062 165.941406 151.46875 C 165.941406 146.648438 162.03125 142.738281 157.210938 142.738281 Z M 157.210938 142.738281 "/></clipPath></defs><g id="3805bc68c9"><path style=" stroke:none;fill-rule:nonzero;fill:#868dac;fill-opacity:1;" d="M 187.320312 69.046875 L 187.320312 155.050781 L 115.589844 188.808594 L 115.347656 188.667969 L 122.777344 176.316406 Z M 187.320312 69.046875 "/><g clip-rule="nonzero" clip-path="url(#ae800a38a1)"><path style=" stroke:none;fill-rule:nonzero;fill:#868dac;fill-opacity:1;" d="M 187.320312 245.472656 L 187.320312 305.796875 L 114.578125 201.832031 Z M 187.320312 245.472656 "/></g><path style=" stroke:none;fill-rule:nonzero;fill:#5f658b;fill-opacity:1;" d="M 187.320312 155.050781 L 187.320312 231.847656 L 124.304688 194.039062 L 115.589844 188.808594 Z M 187.320312 155.050781 "/><path style=" stroke:none;fill-rule:nonzero;fill:#5f658b;fill-opacity:1;" d="M 259.304688 188.667969 L 259.066406 188.808594 L 187.320312 155.050781 L 187.320312 69.046875 L 251.875 176.316406 Z M 259.304688 188.667969 "/><path style=" stroke:none;fill-rule:nonzero;fill:#434871;fill-opacity:1;" d="M 259.066406 188.808594 L 250.332031 194.039062 L 187.320312 231.847656 L 187.320312 155.050781 Z M 259.066406 188.808594 "/><g clip-rule="nonzero" clip-path="url(#acb7cdebe4)"><path style=" stroke:none;fill-rule:nonzero;fill:#5f658b;fill-opacity:1;" d="M 260.074219 201.832031 L 187.335938 305.8125 L 187.320312 305.796875 L 187.320312 245.472656 Z M 260.074219 201.832031 "/></g><g clip-rule="nonzero" clip-path="url(#f7c2aff650)"><g clip-rule="nonzero" clip-path="url(#2b384ef106)"><path style=" stroke:none;fill-rule:nonzero;fill:#868dac;fill-opacity:1;" d="M 148.484375 142.738281 L 165.941406 142.738281 L 165.941406 160.195312 L 148.484375 160.195312 Z M 148.484375 142.738281 "/></g></g></g></svg>